<svg width="48" height="48" viewBox="0 0 48 48" fill="none" xmlns="http://www.w3.org/2000/svg">
<g clip-path="url(#clip0_9_1610)">
<path d="M24 48C37.2548 48 48 37.2548 48 24C48 10.7452 37.2548 0 24 0C10.7452 0 0 10.7452 0 24C0 37.2548 10.7452 48 24 48Z" fill="url(#paint0_linear_9_1610)"/>
<path fill-rule="evenodd" clip-rule="evenodd" d="M22.3367 9.50342H25.6627H26.0184V9.51105C30.3475 9.69717 33.8002 13.2658 33.8002 17.6408C33.8002 19.6729 33.0552 21.531 31.8235 22.957C34.2835 24.409 35.934 27.0869 35.934 30.1501C35.934 34.7528 32.2083 38.4855 27.6082 38.4968H15.1406V38.413L15.1406 13.6872V9.50342H22.3367ZM22.2112 14.8485C22.2112 14.3798 22.5259 13.9845 22.9555 13.8624C23.307 13.7482 23.7085 13.8307 23.9877 14.1099L26.7502 16.8724C26.7732 16.8917 26.7958 16.9122 26.8174 16.934C27.2138 17.3303 27.2138 17.9729 26.8174 18.3693L24.0043 21.1825C23.7997 21.387 23.5296 21.486 23.2616 21.4794C23.2532 21.4796 23.2448 21.4797 23.2363 21.4797C22.6701 21.4797 22.2112 21.0208 22.2112 20.4547V14.8485ZM27.1063 32.9425C27.1063 33.4112 26.7915 33.8065 26.3619 33.9286C26.0105 34.0429 25.609 33.9603 25.3298 33.6809L22.5677 30.919C22.5444 30.8996 22.5218 30.8789 22.5 30.8571C22.1036 30.4606 22.1036 29.8181 22.5 29.4217L25.313 26.6084C25.5178 26.4039 25.7878 26.305 26.0556 26.3115C26.0609 26.3115 26.0659 26.3113 26.0712 26.3113C26.0746 26.3113 26.0779 26.3113 26.0813 26.3113C26.6472 26.3113 27.1063 26.7701 27.1063 27.3363V32.9425Z" fill="white"/>
</g>
<defs>
<linearGradient id="paint0_linear_9_1610" x1="0.079035" y1="5.47771" x2="58.8552" y2="33.9372" gradientUnits="userSpaceOnUse">
<stop offset="0.053951" stop-color="#6D5CFF"/>
<stop offset="0.559189" stop-color="#E86EFF"/>
<stop offset="0.923794" stop-color="#FFD66E"/>
</linearGradient>
<clipPath id="clip0_9_1610">
<rect width="48" height="48" fill="white"/>
</clipPath>
</defs>
</svg>
